<svg width="21" height="21" viewBox="0 0 21 21" fill="none" xmlns="http://www.w3.org/2000/svg">
<path d="M4 5.86279H17.79C18.0694 5.8628 18.3457 5.91983 18.6011 6.03021C18.8565 6.14058 19.0854 6.30185 19.2729 6.50362C19.4603 6.70539 19.6023 6.94318 19.6897 7.20167C19.777 7.46015 19.8078 7.73359 19.78 8.00436L19.18 13.8477C19.1307 14.3283 18.8997 14.7739 18.532 15.098C18.1642 15.4221 17.686 15.6016 17.19 15.6016H7.64C7.17747 15.6018 6.72918 15.4459 6.37144 15.1603C6.01371 14.8748 5.76866 14.4773 5.678 14.0356L4 5.86279Z" stroke="black" stroke-width="2" stroke-linejoin="round"/>
<path d="M4 5.86282L3.19 2.70451C3.13583 2.49392 3.01095 2.30698 2.83521 2.17341C2.65946 2.03984 2.44293 1.96729 2.22 1.96729H1M7 19.4972H9M15 19.4972H17" stroke="black" stroke-width="2" stroke-linecap="round" stroke-linejoin="round"/>
</svg>
