<svg width="18" height="19" viewBox="0 0 18 19" fill="none" xmlns="http://www.w3.org/2000/svg">
<path d="M18 17.5804L12.972 12.6837C14.1803 11.271 14.7828 9.45908 14.6542 7.62481C14.5256 5.79054 13.6759 4.07515 12.2817 2.8355C10.8876 1.59584 9.05634 0.927366 7.16898 0.969131C5.28163 1.01089 3.48346 1.75968 2.14855 3.05973C0.813648 4.35977 0.0447792 6.11097 0.00189494 7.94904C-0.0409893 9.7871 0.645413 11.5705 1.91831 12.9283C3.19121 14.286 4.95259 15.1136 6.83605 15.2388C8.71952 15.364 10.58 14.7772 12.0306 13.6005L17.0586 18.4972L18 17.5804ZM1.35538 8.12284C1.35538 6.96867 1.70681 5.84042 2.36522 4.88077C3.02364 3.92111 3.95947 3.17315 5.05438 2.73147C6.14928 2.28979 7.35409 2.17423 8.51643 2.39939C9.67878 2.62456 10.7465 3.18035 11.5845 3.99647C12.4225 4.81258 12.9932 5.85238 13.2244 6.98437C13.4556 8.11636 13.3369 9.2897 12.8834 10.356C12.4299 11.4223 11.6618 12.3337 10.6765 12.9749C9.69106 13.6162 8.53256 13.9584 7.34744 13.9584C5.75879 13.9567 4.23571 13.3413 3.11236 12.2473C1.98901 11.1533 1.35714 9.67 1.35538 8.12284Z" fill="black"/>
</svg>
