<svg width="50" height="35" viewBox="0 0 50 35" fill="none" xmlns="http://www.w3.org/2000/svg">
<g id="ApplePay">
<g id="ApplePay_2">
<rect id="Rectangle" width="50" height="34.3205" rx="3" fill="#888888"/>
<path id="Path" d="M12.9433 10.9321C12.498 11.499 11.7854 11.9462 11.0728 11.8823C10.9837 11.1158 11.3326 10.3014 11.7408 9.79832C12.1862 9.21545 12.9656 8.80025 13.5965 8.76831C13.6707 9.56677 13.3813 10.3493 12.9433 10.9321ZM13.5891 12.034C12.5573 11.9701 11.674 12.6648 11.1841 12.6648C10.6868 12.6648 9.93711 12.0659 9.12061 12.0819C8.05916 12.0979 7.07194 12.7446 6.53008 13.7747C5.41667 15.8347 6.2406 18.8848 7.31689 20.5616C7.8439 21.392 8.47484 22.3022 9.30618 22.2703C10.093 22.2383 10.4047 21.7193 11.3549 21.7193C12.3124 21.7193 12.587 22.2703 13.4184 22.2543C14.2794 22.2383 14.8213 21.4239 15.3483 20.5935C15.9495 19.6513 16.1945 18.7331 16.2093 18.6852C16.1945 18.6692 14.5466 17.9905 14.5318 15.9465C14.5169 14.2378 15.8308 13.4233 15.8901 13.3754C15.1479 12.1937 13.9899 12.0659 13.5891 12.034ZM19.5495 9.71848V22.1665H21.3458V17.9107H23.8325C26.1038 17.9107 27.6997 16.2339 27.6997 13.8066C27.6997 11.3793 26.1335 9.71848 23.8918 9.71848H19.5495ZM21.3458 11.3473H23.4168C24.9756 11.3473 25.8663 12.2416 25.8663 13.8146C25.8663 15.3875 24.9756 16.2898 23.4094 16.2898H21.3458V11.3473ZM30.9805 22.2623C32.1088 22.2623 33.1554 21.6475 33.6305 20.6733H33.6676V22.1665H35.3303V15.9704C35.3303 14.1739 33.9942 13.0161 31.9381 13.0161C30.0304 13.0161 28.6201 14.1899 28.5682 15.8027H30.1863C30.3199 15.0362 30.9805 14.5332 31.8861 14.5332C32.9847 14.5332 33.6008 15.0841 33.6008 16.0982V16.7848L31.3591 16.9286C29.2733 17.0643 28.1451 17.9825 28.1451 19.5795C28.1451 21.1923 29.3104 22.2623 30.9805 22.2623ZM31.463 20.7851C30.5055 20.7851 29.8968 20.2901 29.8968 19.5315C29.8968 18.7491 30.4832 18.2939 31.604 18.2221L33.6008 18.0863V18.789C33.6008 19.9547 32.6803 20.7851 31.463 20.7851ZM37.5497 25.5519C39.3014 25.5519 40.1253 24.8333 40.8453 22.6535L44 13.1359H42.174L40.0585 20.4897H40.0214L37.9059 13.1359H36.028L39.0713 22.1984L38.908 22.7493C38.6334 23.6835 38.188 24.0428 37.3938 24.0428C37.2527 24.0428 36.9781 24.0269 36.8668 24.0109V25.504C36.9707 25.536 37.416 25.5519 37.5497 25.5519Z" fill="white"/>
</g>
</g>
</svg>
