<svg width="50" height="35" viewBox="0 0 50 35" fill="none" xmlns="http://www.w3.org/2000/svg">
<g id="Google Pay">
<g id="Google Pay_2">
<rect id="Rectangle" width="50" height="34.3205" rx="3" fill="#5485EC"/>
<g id="Group">
<path id="Vector" d="M23.9716 18.0472V22.7912H22.5684V11.0757H26.2899C26.7342 11.0658 27.1758 11.1503 27.5895 11.3244C28.0031 11.4984 28.3805 11.7586 28.6998 12.09C29.0224 12.4012 29.2791 12.7828 29.4528 13.2093C29.6264 13.6357 29.7129 14.0971 29.7065 14.5624C29.7157 15.0302 29.6305 15.4946 29.4568 15.9238C29.283 16.353 29.0248 16.7368 28.6998 17.0489C28.0491 17.7145 27.2458 18.0469 26.2899 18.0463H23.9716V18.0472ZM23.9716 12.5181V16.6077H26.3248C26.5828 16.6159 26.8395 16.5663 27.0786 16.462C27.3177 16.3576 27.5338 16.201 27.7132 16.002C27.8917 15.8159 28.0335 15.5933 28.1304 15.3474C28.2272 15.1015 28.2771 14.8373 28.2771 14.5704C28.2771 14.3034 28.2272 14.0392 28.1304 13.7933C28.0335 13.5474 27.8917 13.3248 27.7132 13.1388C27.5361 12.9356 27.3207 12.775 27.0813 12.6679C26.842 12.5607 26.5841 12.5093 26.3248 12.5171H23.9716V12.5181Z" fill="white"/>
<path id="Vector_2" d="M32.9402 14.5139C33.9773 14.5139 34.796 14.8112 35.3963 15.4057C35.9965 16.0002 36.2963 16.8153 36.2957 17.851V22.7913H34.9535V21.6789H34.8925C34.3114 22.595 33.5387 23.053 32.5741 23.053C31.7508 23.053 31.062 22.7913 30.5076 22.2678C30.2416 22.0276 30.0289 21.7267 29.8851 21.3871C29.7413 21.0475 29.6699 20.6777 29.6762 20.3048C29.6762 19.4753 29.9684 18.8157 30.553 18.3259C31.1375 17.8361 31.9178 17.5905 32.894 17.5893C33.7272 17.5893 34.4134 17.7529 34.9526 18.0801V17.7361C34.9542 17.4818 34.903 17.2304 34.8028 17C34.7025 16.7696 34.5557 16.566 34.373 16.404C34.002 16.045 33.5184 15.849 33.0186 15.8553C32.2348 15.8553 31.6145 16.2099 31.1578 16.9191L29.9219 16.0843C30.6018 15.0374 31.6078 14.5139 32.9402 14.5139ZM31.1247 20.3375C31.1238 20.5291 31.1655 20.7181 31.2465 20.8888C31.3274 21.0595 31.4452 21.207 31.5901 21.319C31.9005 21.5808 32.2857 21.7195 32.6805 21.7116C33.2726 21.7106 33.8402 21.4578 34.2589 21.0087C34.7237 20.5394 34.9561 19.9888 34.9561 19.3569C34.5186 18.983 33.9085 18.7961 33.1258 18.7961C32.5558 18.7961 32.0805 18.9435 31.6999 19.2382C31.3156 19.5374 31.1247 19.901 31.1247 20.3375Z" fill="white"/>
<path id="Vector_3" d="M43.9997 14.7756L39.3142 26.3247H37.8656L39.6044 22.2837L36.5234 14.7756H38.0487L40.2755 20.5338H40.306L42.4719 14.7756H43.9997Z" fill="white"/>
<g id="Group_2">
<path id="Vector_4" d="M18.3014 17.0247C18.3019 16.5661 18.2658 16.1083 18.1933 15.6562H12.2754V18.2484H15.6649C15.5956 18.6624 15.4487 19.057 15.2333 19.4085C15.0179 19.76 14.7384 20.0611 14.4116 20.2936V21.9762H16.4345C17.619 20.8049 18.3014 19.0728 18.3014 17.0247Z" fill="white"/>
<path id="Vector_5" d="M12.2748 23.6016C13.9682 23.6016 15.3941 23.0053 16.4339 21.977L14.411 20.2944C13.8479 20.7039 13.1228 20.9376 12.2748 20.9376C10.638 20.9376 9.24868 19.7541 8.75188 18.1594H6.66797V19.8934C7.19027 21.0081 7.99116 21.9452 8.98123 22.6C9.97129 23.2548 11.1116 23.6016 12.2748 23.6016Z" fill="white"/>
<path id="Vector_6" d="M8.75212 18.1596C8.48948 17.3239 8.48948 16.419 8.75212 15.5834V13.8494H6.6682C6.22883 14.7871 6 15.822 6 16.8715C6 17.9209 6.22883 18.9559 6.6682 19.8936L8.75212 18.1596Z" fill="white"/>
<path id="Vector_7" d="M12.2748 12.8052C13.1697 12.7895 14.0344 13.1521 14.682 13.8147L16.4731 11.8938C15.3374 10.7497 13.8328 10.1215 12.2748 10.1411C11.1116 10.1411 9.97129 10.4879 8.98123 11.1427C7.99116 11.7975 7.19027 12.7346 6.66797 13.8493L8.75188 15.5833C9.24868 13.9886 10.638 12.8052 12.2748 12.8052Z" fill="white"/>
</g>
</g>
</g>
</g>
</svg>
