<svg width="50" height="35" viewBox="0 0 50 35" fill="none" xmlns="http://www.w3.org/2000/svg">
<g id="MasterCard">
<g id="MasterCard_2">
<rect id="Rectangle" width="50" height="34.3205" rx="3" fill="#0F3560"/>
<g id="Group">
<g id="Group_2">
<path id="Vector" d="M29.3635 25.595H20.6143V8.73096H29.3635V25.595Z" fill="#FF5F00"/>
<g id="Group_3">
<path id="Vector_2" d="M21.1748 17.1616C21.1748 13.7406 22.6682 10.6933 24.9938 8.72956C23.2931 7.29354 21.1468 6.43643 18.8142 6.43643C13.2919 6.43643 8.81543 11.2382 8.81543 17.1616C8.81543 23.085 13.2919 27.8867 18.8142 27.8867C21.1468 27.8867 23.2931 27.0296 24.9938 25.5936C22.6682 23.6298 21.1748 20.5825 21.1748 17.1616Z" fill="#EB001B"/>
</g>
<g id="Group_4">
<path id="Vector_3" d="M41.1634 17.1616C41.1634 23.085 36.687 27.8867 31.1647 27.8867C28.832 27.8867 26.6857 27.0296 24.9844 25.5936C27.3107 23.6298 28.8041 20.5825 28.8041 17.1616C28.8041 13.7406 27.3107 10.6933 24.9844 8.72956C26.6857 7.29354 28.832 6.43643 31.1647 6.43643C36.687 6.43643 41.1634 11.2382 41.1634 17.1616Z" fill="#F79E1B"/>
</g>
</g>
<g id="Group_5">
<path id="Vector_4" d="M16.3398 17.2295C16.3398 16.761 16.6261 16.3761 17.0938 16.3761C17.5407 16.3761 17.8424 16.7444 17.8424 17.2295C17.8424 17.7145 17.5407 18.0828 17.0938 18.0828C16.6261 18.0828 16.3398 17.698 16.3398 17.2295ZM18.3518 17.2295V15.8968H17.8115V16.2204C17.6401 15.9804 17.38 15.8298 17.0266 15.8298C16.3297 15.8298 15.7834 16.4157 15.7834 17.2295C15.7834 18.0439 16.3297 18.6292 17.0266 18.6292C17.38 18.6292 17.6401 18.4785 17.8115 18.2385V18.5621H18.3518V17.2295ZM36.6116 17.2295C36.6116 16.761 36.8979 16.3761 37.3656 16.3761C37.8131 16.3761 38.1142 16.7444 38.1142 17.2295C38.1142 17.7145 37.8131 18.0828 37.3656 18.0828C36.8979 18.0828 36.6116 17.698 36.6116 17.2295ZM38.6242 17.2295V14.8265H38.0833V16.2204C37.9119 15.9804 37.6518 15.8298 37.2983 15.8298C36.6015 15.8298 36.0552 16.4157 36.0552 17.2295C36.0552 18.0439 36.6015 18.6292 37.2983 18.6292C37.6518 18.6292 37.9119 18.4785 38.0833 18.2385V18.5621H38.6242V17.2295ZM25.0591 16.3487C25.4072 16.3487 25.631 16.5829 25.6881 16.9952H24.3986C24.4563 16.6104 24.6741 16.3487 25.0591 16.3487ZM25.0698 15.8298C24.3414 15.8298 23.832 16.3985 23.832 17.2295C23.832 18.0771 24.3622 18.6292 25.1061 18.6292C25.4804 18.6292 25.8232 18.5289 26.1249 18.2558L25.8601 17.8262C25.6518 18.0043 25.3864 18.1052 25.1371 18.1052C24.7889 18.1052 24.4717 17.9322 24.3938 17.4522H26.2392C26.2445 17.3801 26.2499 17.3073 26.2499 17.2295C26.2445 16.3985 25.7661 15.8298 25.0698 15.8298ZM31.5944 17.2295C31.5944 16.761 31.8806 16.3761 32.3484 16.3761C32.7953 16.3761 33.097 16.7444 33.097 17.2295C33.097 17.7145 32.7953 18.0828 32.3484 18.0828C31.8806 18.0828 31.5944 17.698 31.5944 17.2295ZM33.6064 17.2295V15.8968H33.0661V16.2204C32.8941 15.9804 32.6346 15.8298 32.2811 15.8298C31.5843 15.8298 31.038 16.4157 31.038 17.2295C31.038 18.0439 31.5843 18.6292 32.2811 18.6292C32.6346 18.6292 32.8941 18.4785 33.0661 18.2385V18.5621H33.6064V17.2295ZM28.5428 17.2295C28.5428 18.0381 29.0676 18.6292 29.8686 18.6292C30.2429 18.6292 30.4923 18.5398 30.7625 18.3113L30.503 17.8428C30.3001 17.9992 30.087 18.0828 29.8526 18.0828C29.4211 18.0771 29.1039 17.7426 29.1039 17.2295C29.1039 16.7163 29.4211 16.3819 29.8526 16.3761C30.087 16.3761 30.3001 16.4598 30.503 16.6161L30.7625 16.1477C30.4923 15.9192 30.2429 15.8298 29.8686 15.8298C29.0676 15.8298 28.5428 16.4208 28.5428 17.2295ZM35.5095 15.8298C35.1977 15.8298 34.9948 15.9862 34.8543 16.2204V15.8968H34.3187V18.5621H34.8597V17.068C34.8597 16.627 35.0364 16.3819 35.3899 16.3819C35.4994 16.3819 35.6136 16.3985 35.7279 16.4489L35.8945 15.9026C35.7749 15.8521 35.619 15.8298 35.5095 15.8298ZM21.0244 16.1087C20.7643 15.9249 20.4061 15.8298 20.0109 15.8298C19.3813 15.8298 18.9761 16.1534 18.9761 16.6831C18.9761 17.1178 19.2778 17.3859 19.8336 17.4695L20.0889 17.5084C20.3853 17.5531 20.5251 17.6367 20.5251 17.7873C20.5251 17.9935 20.3275 18.1109 19.9586 18.1109C19.5843 18.1109 19.3141 17.9826 19.132 17.832L18.8773 18.2832C19.1736 18.5175 19.548 18.6292 19.9532 18.6292C20.6709 18.6292 21.0869 18.2666 21.0869 17.7592C21.0869 17.2908 20.7596 17.0457 20.2186 16.9621L19.9639 16.9225C19.7301 16.8893 19.5426 16.8395 19.5426 16.6608C19.5426 16.4655 19.7193 16.3487 20.0157 16.3487C20.3329 16.3487 20.64 16.477 20.7905 16.5772L21.0244 16.1087ZM27.9965 15.8298C27.6846 15.8298 27.4817 15.9862 27.3419 16.2204V15.8968H26.8063V18.5621H27.3466V17.068C27.3466 16.627 27.5234 16.3819 27.8769 16.3819C27.9864 16.3819 28.1006 16.3985 28.2149 16.4489L28.3815 15.9026C28.2619 15.8521 28.106 15.8298 27.9965 15.8298ZM23.3851 15.8968H22.5014V15.0882H21.9551V15.8968H21.4511V16.4266H21.9551V17.6424C21.9551 18.2609 22.1789 18.6292 22.818 18.6292C23.0525 18.6292 23.3226 18.5513 23.494 18.423L23.3381 17.9264C23.1768 18.0266 23.0001 18.0771 22.8596 18.0771C22.5895 18.0771 22.5014 17.8984 22.5014 17.6309V16.4266H23.3851V15.8968ZM15.3056 18.5621V16.8893C15.3056 16.2593 14.9312 15.8356 14.3278 15.8298C14.0106 15.8241 13.6833 15.93 13.4542 16.304C13.2828 16.0085 13.0127 15.8298 12.633 15.8298C12.3676 15.8298 12.1081 15.9134 11.9052 16.2255V15.8968H11.3643V18.5621H11.91V17.0846C11.91 16.6219 12.1492 16.3761 12.5187 16.3761C12.8776 16.3761 13.0591 16.627 13.0591 17.0789V18.5621H13.6054V17.0846C13.6054 16.6219 13.8547 16.3761 14.2136 16.3761C14.5825 16.3761 14.7593 16.627 14.7593 17.0789V18.5621H15.3056Z" fill="white"/>
</g>
</g>
</g>
</g>
</svg>
