<svg width="50" height="35" viewBox="0 0 50 35" fill="none" xmlns="http://www.w3.org/2000/svg">
<g id="PayPal">
<g id="PayPal_2">
<rect id="Rectangle" width="50" height="34.3205" rx="3" fill="#082069"/>
<g id="Group">
<g id="Group_2">
<path id="Vector" d="M14.8735 22.4155H12.8008C12.659 22.4155 12.5384 22.526 12.5162 22.6762L11.678 28.3766C11.6613 28.489 11.7425 28.5904 11.8489 28.5904H12.8384C12.9802 28.5904 13.1009 28.4799 13.123 28.3294L13.3491 26.792C13.3709 26.6415 13.4918 26.5309 13.6334 26.5309H14.2895C15.6548 26.5309 16.4428 25.8223 16.6486 24.4181C16.7413 23.8038 16.6525 23.3211 16.3843 22.9831C16.0897 22.6119 15.5672 22.4155 14.8735 22.4155ZM15.1126 24.4975C14.9993 25.2951 14.431 25.2951 13.8816 25.2951H13.5688L13.7882 23.8054C13.8013 23.7154 13.874 23.6491 13.9589 23.6491H14.1022C14.4765 23.6491 14.8296 23.6491 15.012 23.8779C15.1208 24.0144 15.1542 24.2173 15.1126 24.4975Z" fill="white"/>
<path id="Vector_2" d="M21.0695 24.4712H20.077C19.9924 24.4712 19.9194 24.5375 19.9064 24.6276L19.8624 24.9253L19.793 24.8174C19.5781 24.4829 19.099 24.3711 18.6207 24.3711C17.5239 24.3711 16.5871 25.262 16.4047 26.5118C16.3098 27.1353 16.4447 27.7314 16.7744 28.1472C17.0769 28.5294 17.5097 28.6887 18.0246 28.6887C18.9083 28.6887 19.3984 28.0792 19.3984 28.0792L19.3542 28.375C19.3375 28.4881 19.4187 28.5895 19.5245 28.5895H20.4185C20.5607 28.5895 20.6807 28.479 20.7031 28.3285L21.2396 24.6851C21.2565 24.5729 21.1756 24.4712 21.0695 24.4712ZM19.686 26.5431C19.5903 27.1512 19.1402 27.5595 18.5662 27.5595C18.278 27.5595 18.0476 27.4603 17.8997 27.2725C17.753 27.0859 17.6973 26.8203 17.744 26.5245C17.8334 25.9216 18.291 25.5 18.8562 25.5C19.1381 25.5 19.3672 25.6004 19.5181 25.7899C19.6694 25.9814 19.7294 26.2486 19.686 26.5431Z" fill="white"/>
<path id="Vector_3" d="M26.3549 24.4712H25.3575C25.2623 24.4712 25.1729 24.5219 25.119 24.6067L23.7433 26.78L23.1602 24.6916C23.1236 24.5609 23.0111 24.4712 22.8838 24.4712H21.9037C21.7846 24.4712 21.7019 24.596 21.7397 24.7163L22.8384 28.1741L21.8055 29.7379C21.7243 29.8611 21.8061 30.0305 21.9464 30.0305H22.9426C23.0372 30.0305 23.1257 29.9811 23.1793 29.8978L26.4967 24.7621C26.5761 24.6392 26.4946 24.4712 26.3549 24.4712Z" fill="white"/>
<path id="Vector_4" d="M29.6577 22.4148H27.5847C27.4432 22.4148 27.3226 22.5253 27.3004 22.6755L26.4621 28.3758C26.4455 28.4883 26.5267 28.5897 26.6325 28.5897H27.6962C27.795 28.5897 27.8796 28.5123 27.8951 28.407L28.133 26.7912C28.1548 26.6407 28.2757 26.5302 28.4172 26.5302H29.0731C30.4387 26.5302 31.2264 25.8216 31.4325 24.4174C31.5255 23.8031 31.4361 23.3204 31.1679 22.9823C30.8736 22.6111 30.3514 22.4148 29.6577 22.4148ZM29.8968 24.4967C29.7838 25.2944 29.2155 25.2944 28.6658 25.2944H28.3533L28.573 23.8047C28.586 23.7147 28.6582 23.6483 28.7433 23.6483H28.8867C29.2607 23.6483 29.6141 23.6483 29.7965 23.8772C29.9053 24.0137 29.9383 24.2165 29.8968 24.4967Z" fill="white"/>
<path id="Vector_5" d="M35.8534 24.4712H34.8615C34.7763 24.4712 34.7039 24.5375 34.6911 24.6276L34.6472 24.9253L34.5775 24.8174C34.3626 24.4829 33.8838 24.3711 33.4055 24.3711C32.3087 24.3711 31.3722 25.262 31.1898 26.5118C31.0952 27.1353 31.2295 27.7314 31.5592 28.1472C31.8623 28.5294 32.2945 28.6887 32.8094 28.6887C33.6931 28.6887 34.1832 28.0792 34.1832 28.0792L34.1389 28.375C34.1223 28.4881 34.2035 28.5895 34.3099 28.5895H35.2036C35.3452 28.5895 35.4658 28.479 35.4879 28.3285L36.0246 24.6851C36.041 24.5729 35.9598 24.4712 35.8534 24.4712ZM34.4699 26.5431C34.3747 27.1512 33.9241 27.5595 33.35 27.5595C33.0624 27.5595 32.8315 27.4603 32.6836 27.2725C32.5369 27.0859 32.4817 26.8203 32.5278 26.5245C32.6178 25.9216 33.0749 25.5 33.6401 25.5C33.9219 25.5 34.1511 25.6004 34.302 25.7899C34.4538 25.9814 34.5138 26.2486 34.4699 26.5431Z" fill="white"/>
<path id="Vector_6" d="M37.0228 22.5712L36.1721 28.3759C36.1554 28.4884 36.2367 28.5898 36.3424 28.5898H37.1977C37.3398 28.5898 37.4604 28.4793 37.4823 28.3288L38.3212 22.6288C38.3378 22.5163 38.2566 22.4146 38.1508 22.4146H37.1931C37.1086 22.4149 37.0358 22.4812 37.0228 22.5712Z" fill="white"/>
</g>
<g id="Group_3">
<path id="Vector_7" opacity="0.68" d="M30.1151 7.96213C30.2795 6.83772 30.114 6.0728 29.5469 5.37971C28.9227 4.61685 27.795 4.29004 26.3521 4.29004H22.1637C21.8689 4.29004 21.6177 4.52013 21.5719 4.83267L19.8277 16.694C19.7934 16.928 19.9621 17.1396 20.1828 17.1396H22.7685L22.59 18.3533C22.56 18.5581 22.7074 18.7432 22.9007 18.7432H25.0802C25.3381 18.7432 25.5578 18.5419 25.598 18.2686L25.6194 18.1496L26.0299 15.3573L26.0564 15.203C26.0966 14.9298 26.3163 14.7282 26.5742 14.7282H26.9002C29.0116 14.7282 30.6649 13.8083 31.1479 11.1475C31.3499 10.0358 31.2454 9.10775 30.7116 8.4553C30.5503 8.25833 30.3494 8.09521 30.1151 7.96213Z" fill="white"/>
<path id="Vector_8" opacity="0.7" d="M30.1151 7.96213C30.2795 6.83772 30.114 6.0728 29.5469 5.37971C28.9227 4.61685 27.795 4.29004 26.3521 4.29004H22.1637C21.8689 4.29004 21.6177 4.52013 21.5719 4.83267L19.8277 16.694C19.7934 16.928 19.9621 17.1396 20.1828 17.1396H22.7685L23.418 12.7221L23.3978 12.8607C23.4438 12.5483 23.6927 12.318 23.9876 12.318H25.2167C27.6302 12.318 29.5202 11.2663 30.0722 8.22491C30.0887 8.13511 30.1026 8.04781 30.1151 7.96213Z" fill="white"/>
<path id="Vector_9" d="M24.1158 7.977C24.1434 7.78916 24.256 7.63517 24.4074 7.55744C24.4761 7.52211 24.5531 7.50239 24.6337 7.50239H27.9168C28.3058 7.50239 28.6685 7.52977 29 7.58703C29.0947 7.60337 29.1869 7.62222 29.2765 7.64356C29.366 7.66491 29.4531 7.68861 29.5372 7.71511C29.5793 7.72821 29.6207 7.7422 29.6614 7.75662C29.8242 7.81463 29.9759 7.88293 30.1153 7.96228C30.2798 6.83786 30.1142 6.07294 29.5472 5.37986C28.9227 4.61685 27.795 4.29004 26.3521 4.29004H22.1637C21.8689 4.29004 21.6177 4.52013 21.5719 4.83267L19.8277 16.694C19.7934 16.928 19.9621 17.1396 20.1828 17.1396H22.7685L23.418 12.7221L24.1158 7.977Z" fill="white"/>
</g>
</g>
</g>
</g>
</svg>
