<svg width="50" height="35" viewBox="0 0 50 35" fill="none" xmlns="http://www.w3.org/2000/svg">
<g id="Visa">
<g id="Visa_2">
<rect id="Rectangle" width="50" height="34.3205" rx="3" fill="#00579F"/>
<g id="Group">
<path id="polygon9" d="M22.4669 23.097H19.3887L21.314 11.2612H24.3921L22.4669 23.097Z" fill="white"/>
<path id="path11" d="M33.6256 11.5508C33.0184 11.3113 32.0554 11.0469 30.8646 11.0469C27.8247 11.0469 25.684 12.6585 25.6709 14.9626C25.6457 16.6625 27.2036 17.6067 28.3688 18.1735C29.5597 18.7527 29.9645 19.1308 29.9645 19.647C29.9524 20.44 29.0022 20.8054 28.1159 20.8054C26.8869 20.8054 26.2284 20.617 25.2277 20.1759L24.8224 19.9868L24.3916 22.6436C25.1136 22.9706 26.4437 23.2608 27.8247 23.2735C31.0546 23.2735 33.1574 21.6869 33.1823 19.2315C33.1946 17.8842 32.372 16.8518 30.5985 16.0082C29.5218 15.4666 28.8625 15.1015 28.8625 14.5474C28.8751 14.0436 29.4201 13.5277 30.6355 13.5277C31.6362 13.5024 32.3715 13.7416 32.9285 13.9809L33.2069 14.1066L33.6256 11.5508Z" fill="white"/>
<path id="path13" d="M37.7167 18.904C37.9702 18.224 38.9457 15.5924 38.9457 15.5924C38.9329 15.6177 39.1987 14.8999 39.3507 14.4593L39.5658 15.4791C39.5658 15.4791 40.1487 18.3122 40.2753 18.904C39.7942 18.904 38.3247 18.904 37.7167 18.904ZM41.5164 11.2612H39.1354C38.4011 11.2612 37.8433 11.4751 37.5265 12.2432L32.9541 23.0968H36.184C36.184 23.0968 36.7158 21.636 36.8301 21.3214C37.1844 21.3214 40.3265 21.3214 40.7823 21.3214C40.8707 21.7369 41.1496 23.0968 41.1496 23.0968H43.9998L41.5164 11.2612Z" fill="white"/>
<path id="path15" d="M16.8168 11.2612L13.8021 19.3321L13.4727 17.6952C12.9154 15.8065 11.1674 13.7544 9.2168 12.7341L11.9781 23.0844H15.2333L20.0718 11.2612H16.8168Z" fill="white"/>
<path id="path17" d="M11.0033 11.2612H6.05067L6 11.5004C9.86336 12.4826 12.422 14.8501 13.4732 17.6957L12.3966 12.2561C12.2193 11.5002 11.6746 11.2862 11.0033 11.2612Z" fill="#FAA61A"/>
</g>
</g>
</g>
</svg>
